<svg xmlns="http://www.w3.org/2000/svg" xmlns:xlink="http://www.w3.org/1999/xlink" xml:space="preserve" version="1.1" style="shape-rendering:geometricPrecision;text-rendering:geometricPrecision;image-rendering:optimizeQuality;" viewBox="0 0 100 125" x="0px" y="0px" fill-rule="evenodd" clip-rule="evenodd"><defs><style type="text/css">
   
    .fil0 {fill:black}
   
  </style></defs><g><path class="fil0" d="M15.85 12.13l68.3 0c8.17,0 14.85,6.69 14.85,14.85l0 46.04c0,8.16 -6.68,14.85 -14.85,14.85l-68.3 0c-8.17,0 -14.85,-6.69 -14.85,-14.85l0 -46.04c0,-8.16 6.68,-14.85 14.85,-14.85zm55.16 10.9c4.2,0 7.6,3.4 7.6,7.6 0,4.2 -3.4,7.61 -7.6,7.61 -4.2,0 -7.61,-3.41 -7.61,-7.61 0,-4.2 3.41,-7.6 7.61,-7.6zm-48.98 41.58l17.45 -28.33c1.46,-1.68 4.77,-1.68 6.23,0l11.33 18.38 4.49 -7.29c1.04,-1.2 3.39,-1.2 4.43,0l12.39 20.12c2.34,3.8 -0.13,8.46 -4.27,8.46 -15.35,0 -30.7,0 -46.05,0 -5.89,0 -9.3,-5.99 -6,-11.34z"/></g><text x="0" y="115" fill="#000000" font-size="5px" font-weight="bold" font-family="'Helvetica Neue', Helvetica, Arial-Unicode, Arial, Sans-serif">Created by YANDI RS</text><text x="0" y="120" fill="#000000" font-size="5px" font-weight="bold" font-family="'Helvetica Neue', Helvetica, Arial-Unicode, Arial, Sans-serif">from the Noun Project</text></svg>